<?xml version="1.0" encoding="utf-8"?>
<!-- Generator: Adobe Illustrator 27.0.1, SVG Export Plug-In . SVG Version: 6.00 Build 0)  -->
<svg version="1.1" id="Layer_1" xmlns="http://www.w3.org/2000/svg" xmlns:xlink="http://www.w3.org/1999/xlink" x="0px" y="0px"
	 viewBox="0 0 906.87 785.29" style="enable-background:new 0 0 906.87 785.29;" xml:space="preserve">
<style type="text/css">
	.st0{display:none;}
</style>
<circle class="st0" cx="453.44" cy="392.65" r="500"/>
<g>
	<polygon points="297.68,662.01 178.11,454.29 584.61,454.29 620.19,392.86 584.56,331.01 177.85,331.01 298.17,123.29 
		680.72,123.29 716.16,62.01 680.46,0 227.14,0 0,392.07 226.41,785.29 679.74,785.29 715.28,723.95 679.61,662.01 	"/>
	<polygon points="775.76,165.5 418.16,165.5 382.45,227.09 418.01,288.79 704.47,288.79 764.51,393.05 704.56,496.51 417.67,496.51 
		382.06,558.02 417.59,619.79 775.64,619.79 906.87,393.23 	"/>
</g>
</svg>
